# xmcd CD database file
#
# Track frame offsets:
#	150
#	19333
#	34853
#	53858
#
# Disc length: 926 seconds
#
# Revision: 1
# Processed by: cddbd v1.5.2PL0 Copyright (c) Steve Scherf et al.
# Submitted via: CDex 1.70beta2
#
DISCID=2e039c04
DTITLE=Black Lake - War ... No War
DYEAR=1990
DGENRE=Pop
TTITLE0=War ... No War  Special Edit
TTITLE1=War ... No War  Radio Version
TTITLE2=War ... No War  Instrumental Version
TTITLE3=All I wanna know
EXTD=YEAR: 1990
EXTT0=
EXTT1=
EXTT2=
EXTT3=
PLAYORDER=
